<svg width="38" height="38" viewBox="0 0 38 38" fill="none" xmlns="http://www.w3.org/2000/svg">
<path d="M31.667 16.0361C31.667 9.96875 31.667 6.93666 29.8113 5.05091C27.9557 3.16516 24.9711 3.16675 19.0003 3.16675H15.8337C9.86291 3.16675 6.87674 3.16675 5.02266 5.05091C3.16858 6.93508 3.16699 9.96875 3.16699 16.0361C3.16699 22.1034 3.16699 25.1355 5.02266 27.0212C5.76683 27.7765 6.69149 28.2293 7.91699 28.5001" stroke="#8C52FF" stroke-width="2" stroke-linecap="round" stroke-linejoin="round"/>
<path d="M34.8337 27.7085C34.8337 24.7397 34.8337 23.2562 34.0784 22.2143C33.8343 21.8783 33.5388 21.5829 33.2028 21.3387C32.161 20.5835 30.6774 20.5835 27.7087 20.5835H19.792C16.8232 20.5835 15.3397 20.5835 14.2978 21.3387C13.9618 21.5829 13.6664 21.8783 13.4222 22.2143C12.667 23.2577 12.667 24.7413 12.667 27.7085C12.667 30.6757 12.667 32.1608 13.4222 33.2027C13.6668 33.5388 13.9629 33.8343 14.2994 34.0782C15.3397 34.8335 16.8232 34.8335 19.792 34.8335H27.7087C30.6774 34.8335 32.161 34.8335 33.2028 34.0782C33.5388 33.8341 33.8343 33.5386 34.0784 33.2027C34.8337 32.1608 34.8337 30.6772 34.8337 27.7085Z" stroke="#8C52FF" stroke-width="2" stroke-linecap="round" stroke-linejoin="round"/>
<path d="M26.1256 25.3333L27.5823 26.5889C28.1951 27.1162 28.5006 27.3806 28.5006 27.7083C28.5006 28.0361 28.1951 28.3005 27.5823 28.8278L26.1256 30.0833M21.3757 25.3333L19.919 26.5889C19.3062 27.1162 19.0007 27.3806 19.0007 27.7083C19.0007 28.0361 19.3062 28.3005 19.919 28.8278L21.3757 30.0833M3.95898 9.5H30.8756" stroke="#8C52FF" stroke-width="2" stroke-linecap="round" stroke-linejoin="round"/>
</svg>
