<svg width="32" height="32" viewBox="0 0 32 32" fill="none" xmlns="http://www.w3.org/2000/svg">
<path d="M16.0003 31.3334C11.5204 31.3334 7.84491 30.7629 4.97374 29.6218C2.10258 28.4808 0.666992 27.0113 0.666992 25.2135V6.41675C0.666992 4.82464 2.16199 3.46828 5.15199 2.34766C8.14199 1.22705 11.7581 0.666748 16.0003 0.666748C20.2425 0.666748 23.8587 1.22705 26.8487 2.34766C29.8387 3.46828 31.3337 4.82464 31.3337 6.41675V25.2154C31.3337 27.0107 29.8981 28.4795 27.0269 29.6218C24.1557 30.7642 20.4802 31.3347 16.0003 31.3334ZM16.0003 10.0392C18.745 10.0392 21.5114 9.65655 24.2995 8.89117C27.0902 8.12578 28.7589 7.29203 29.3058 6.38991C28.7819 5.43925 27.14 4.56716 24.38 3.77366C21.62 2.98016 18.8268 2.58341 16.0003 2.58341C13.216 2.58341 10.4267 2.96611 7.63216 3.7315C4.83766 4.49689 3.16696 5.33383 2.62008 6.24233C3.14141 7.20066 4.78719 8.07339 7.55741 8.8605C10.3276 9.64761 13.1419 10.0392 16.0003 10.0392ZM16.0003 19.6858C17.3164 19.6858 18.6102 19.6219 19.8816 19.4942C21.153 19.3664 22.3675 19.1766 23.5252 18.9249C24.6828 18.6732 25.7594 18.3595 26.7547 17.9838C27.7501 17.6082 28.6375 17.1833 29.417 16.7092V8.8605C28.6363 9.33328 27.7482 9.7575 26.7528 10.1332C25.76 10.5088 24.6841 10.8219 23.5252 11.0723C22.3662 11.3253 21.1517 11.5157 19.8816 11.6435C18.6115 11.7713 17.3177 11.8352 16.0003 11.8352C14.6331 11.8352 13.3049 11.7649 12.0156 11.6243C10.7263 11.4838 9.50858 11.2883 8.36241 11.0378C7.21624 10.7874 6.15377 10.4794 5.17499 10.114C4.19621 9.74855 3.33244 9.33072 2.58366 8.8605V16.7112C3.33371 17.1839 4.19749 17.6018 5.17499 17.9647C6.15249 18.3276 7.21497 18.6355 8.36241 18.8885C9.5073 19.1402 10.725 19.3364 12.0156 19.4769C13.3061 19.6175 14.6344 19.6871 16.0003 19.6858ZM16.0003 29.4167C17.6423 29.4167 19.2031 29.3235 20.6827 29.1369C22.1624 28.9504 23.4926 28.6859 24.6732 28.3434C25.8539 28.001 26.857 27.5914 27.6824 27.1148C28.5079 26.6382 29.086 26.1239 29.417 25.5719V18.6278C28.6363 19.1006 27.7482 19.5248 26.7528 19.9005C25.76 20.2762 24.6841 20.5899 23.5252 20.8416C22.3662 21.0933 21.1517 21.2831 19.8816 21.4108C18.6115 21.5386 17.3177 21.6025 16.0003 21.6025C14.6331 21.6025 13.3049 21.5322 12.0156 21.3917C10.7263 21.2511 9.50858 21.0556 8.36241 20.8052C7.21624 20.5547 6.15377 20.2468 5.17499 19.8813C4.19621 19.5184 3.33244 19.1006 2.58366 18.6278V25.5834C2.91588 26.161 3.4928 26.6798 4.31441 27.1397C5.13602 27.5998 6.13652 28.0003 7.31591 28.3415C8.4953 28.6827 9.82738 28.9478 11.3122 29.1369C12.7969 29.326 14.3597 29.4193 16.0003 29.4167Z" fill="#8C52FF"/>
</svg>
