<svg width="191" height="37" viewBox="0 0 191 37" fill="none" xmlns="http://www.w3.org/2000/svg">
<path d="M0.144 15.872V13.424H12.624V15.872H7.164L7.8 15.224V29H4.968V15.224L5.604 15.872H0.144ZM17.3338 29.336C16.3418 29.336 15.4338 29.08 14.6098 28.568C13.7858 28.056 13.1258 27.34 12.6298 26.42C12.1338 25.492 11.8858 24.408 11.8858 23.168C11.8858 21.888 12.1298 20.788 12.6178 19.868C13.1138 18.948 13.7738 18.244 14.5978 17.756C15.4218 17.268 16.3338 17.024 17.3338 17.024C18.2618 17.024 19.0618 17.212 19.7338 17.588C20.4138 17.956 20.9578 18.46 21.3658 19.1C21.7818 19.732 22.0618 20.448 22.2058 21.248C22.3498 22.048 22.3578 22.872 22.2298 23.72H14.1418V22.184H20.2258L19.6738 22.544C19.6978 22.168 19.6778 21.788 19.6138 21.404C19.5578 21.02 19.4458 20.668 19.2778 20.348C19.1098 20.028 18.8698 19.772 18.5578 19.58C18.2538 19.38 17.8618 19.28 17.3818 19.28C16.8058 19.28 16.3178 19.424 15.9178 19.712C15.5178 20 15.2138 20.392 15.0058 20.888C14.7978 21.384 14.6938 21.944 14.6938 22.568V23.696C14.6938 24.352 14.7898 24.932 14.9818 25.436C15.1818 25.94 15.4738 26.336 15.8578 26.624C16.2498 26.912 16.7418 27.056 17.3338 27.056C17.8858 27.056 18.3498 26.928 18.7258 26.672C19.1018 26.416 19.3418 26.032 19.4458 25.52H22.3018C22.1818 26.272 21.8978 26.936 21.4498 27.512C21.0098 28.08 20.4378 28.528 19.7338 28.856C19.0298 29.176 18.2298 29.336 17.3338 29.336ZM33.1324 29L32.7724 26.168V21.488C32.7724 20.672 32.6044 20.068 32.2684 19.676C31.9404 19.284 31.3804 19.088 30.5884 19.088C30.1324 19.088 29.7364 19.156 29.4004 19.292C29.0644 19.428 28.8044 19.624 28.6204 19.88C28.4444 20.128 28.3564 20.432 28.3564 20.792H25.2604C25.2604 19.912 25.4724 19.196 25.8964 18.644C26.3204 18.084 26.9284 17.676 27.7204 17.42C28.5204 17.156 29.4764 17.024 30.5884 17.024C31.5964 17.024 32.4764 17.188 33.2284 17.516C33.9804 17.836 34.5644 18.332 34.9804 19.004C35.3964 19.676 35.6044 20.536 35.6044 21.584V29H33.1324ZM29.3164 29.336C28.3164 29.336 27.4804 29.164 26.8084 28.82C26.1444 28.468 25.6444 28.008 25.3084 27.44C24.9724 26.872 24.8044 26.256 24.8044 25.592C24.8044 24.856 24.9964 24.24 25.3804 23.744C25.7724 23.24 26.3244 22.864 27.0364 22.616C27.7484 22.36 28.5884 22.232 29.5564 22.232C30.1884 22.232 30.7844 22.28 31.3444 22.376C31.9124 22.472 32.4764 22.6 33.0364 22.76V24.416C32.5964 24.272 32.1164 24.16 31.5964 24.08C31.0764 24 30.5884 23.96 30.1324 23.96C29.4604 23.96 28.9084 24.084 28.4764 24.332C28.0444 24.58 27.8284 25 27.8284 25.592C27.8284 26.024 28.0044 26.396 28.3564 26.708C28.7084 27.02 29.2684 27.176 30.0364 27.176C30.6204 27.176 31.1164 27.048 31.5244 26.792C31.9324 26.536 32.2404 26.216 32.4484 25.832C32.6644 25.448 32.7724 25.064 32.7724 24.68H33.4444C33.4444 25.52 33.2884 26.296 32.9764 27.008C32.6644 27.712 32.2004 28.276 31.5844 28.7C30.9764 29.124 30.2204 29.336 29.3164 29.336ZM55.5714 29V22.184C55.5714 21.32 55.3634 20.668 54.9474 20.228C54.5314 19.788 53.9874 19.568 53.3154 19.568C52.4674 19.568 51.7994 19.912 51.3114 20.6C50.8234 21.288 50.5794 22.328 50.5794 23.72H49.4034C49.4034 22.496 49.5154 21.46 49.7394 20.612C49.9714 19.756 50.2954 19.068 50.7114 18.548C51.1354 18.02 51.6314 17.636 52.1994 17.396C52.7674 17.148 53.3954 17.024 54.0834 17.024C55.0354 17.024 55.8314 17.24 56.4714 17.672C57.1194 18.096 57.6074 18.696 57.9354 19.472C58.2634 20.248 58.4274 21.152 58.4274 22.184V29H55.5714ZM39.7554 29V17.36H42.2274L42.5394 19.352C42.9234 18.576 43.4314 17.996 44.0634 17.612C44.6954 17.22 45.4194 17.024 46.2354 17.024C47.1954 17.024 47.9954 17.24 48.6354 17.672C49.2834 18.096 49.7674 18.696 50.0874 19.472C50.4154 20.248 50.5794 21.152 50.5794 22.184V29H47.7474V22.184C47.7474 21.32 47.5394 20.668 47.1234 20.228C46.7074 19.788 46.1634 19.568 45.4914 19.568C44.9234 19.568 44.4194 19.724 43.9794 20.036C43.5474 20.348 43.2074 20.82 42.9594 21.452C42.7114 22.076 42.5874 22.856 42.5874 23.792V29H39.7554Z" fill="#4D4D4D"/>
<path d="M63.1847 29V8.232H70.5127C72.8487 8.232 74.6674 8.808 75.9687 9.96C77.2807 11.112 77.9367 12.744 77.9367 14.856C77.9367 16.9467 77.2807 18.568 75.9687 19.72C74.6674 20.872 72.8487 21.448 70.5127 21.448H66.9927V29H63.1847ZM66.9927 18.152H70.5127C71.686 18.152 72.5714 17.8427 73.1687 17.224C73.766 16.6053 74.0647 15.816 74.0647 14.856C74.0647 13.8747 73.766 13.0693 73.1687 12.44C72.5714 11.8107 71.686 11.496 70.5127 11.496H66.9927V18.152ZM87.9552 29.448C86.5365 29.448 85.2512 29.144 84.0992 28.536C82.9579 27.928 82.0512 27.0213 81.3792 25.816C80.7072 24.6 80.3712 23.08 80.3712 21.256C80.3712 19.4 80.7072 17.864 81.3792 16.648C82.0512 15.432 82.9579 14.5253 84.0992 13.928C85.2512 13.3307 86.5365 13.032 87.9552 13.032C89.3525 13.032 90.6165 13.3307 91.7472 13.928C92.8885 14.5253 93.7952 15.432 94.4672 16.648C95.1392 17.864 95.4752 19.4 95.4752 21.256C95.4752 23.08 95.1392 24.6 94.4672 25.816C93.7952 27.0213 92.8885 27.928 91.7472 28.536C90.6165 29.144 89.3525 29.448 87.9552 29.448ZM87.8272 26.152C88.5739 26.152 89.2352 25.9707 89.8112 25.608C90.3979 25.2347 90.8565 24.6853 91.1872 23.96C91.5285 23.2347 91.6992 22.3333 91.6992 21.256C91.6992 19.6133 91.3739 18.376 90.7232 17.544C90.0832 16.712 89.2032 16.296 88.0832 16.296C87.3259 16.296 86.6539 16.4827 86.0672 16.856C85.4805 17.2187 85.0165 17.768 84.6752 18.504C84.3445 19.24 84.1792 20.1573 84.1792 21.256C84.1792 22.8773 84.5045 24.0987 85.1552 24.92C85.8165 25.7413 86.7072 26.152 87.8272 26.152ZM99.9682 29V13.416H103.744V29H99.9682ZM102.816 22.184C102.816 20.1467 103.046 18.4613 103.504 17.128C103.963 15.7947 104.576 14.808 105.344 14.168C106.123 13.5173 106.987 13.192 107.936 13.192C108.192 13.192 108.432 13.208 108.656 13.24C108.891 13.272 109.12 13.32 109.344 13.384L109.28 17.16C109.003 17.096 108.704 17.0427 108.384 17C108.064 16.9573 107.776 16.936 107.52 16.936C106.688 16.936 105.99 17.1387 105.424 17.544C104.87 17.9387 104.448 18.5253 104.16 19.304C103.883 20.0827 103.744 21.0427 103.744 22.184H102.816ZM117.779 29.448C116.861 29.448 116.019 29.2773 115.251 28.936C114.493 28.5947 113.885 28.072 113.427 27.368C112.979 26.664 112.755 25.768 112.755 24.68V9.352H116.531V24.552C116.531 25.832 117.139 26.472 118.355 26.472C118.728 26.472 119.101 26.4293 119.475 26.344C119.848 26.2587 120.275 26.1307 120.755 25.96L121.299 28.616C120.701 28.8507 120.12 29.048 119.555 29.208C118.989 29.368 118.397 29.448 117.779 29.448ZM110.579 15.976V13.48H120.755V15.976H110.579ZM126.052 29V11.592C126.052 10.472 126.27 9.56 126.708 8.856C127.145 8.152 127.721 7.63467 128.436 7.304C129.161 6.96267 129.945 6.792 130.788 6.792C131.31 6.792 131.849 6.82933 132.404 6.904C132.958 6.97867 133.497 7.06933 134.02 7.176L133.284 10.088C133.017 9.992 132.74 9.91733 132.452 9.864C132.164 9.8 131.886 9.768 131.62 9.768C131.321 9.768 131.038 9.82667 130.772 9.944C130.505 10.0507 130.286 10.2427 130.116 10.52C129.945 10.7973 129.86 11.176 129.86 11.656V29H126.052ZM123.748 15.976V13.48H132.708V15.976H123.748ZM143.018 29.448C141.599 29.448 140.314 29.144 139.162 28.536C138.02 27.928 137.114 27.0213 136.442 25.816C135.77 24.6 135.434 23.08 135.434 21.256C135.434 19.4 135.77 17.864 136.442 16.648C137.114 15.432 138.02 14.5253 139.162 13.928C140.314 13.3307 141.599 13.032 143.018 13.032C144.415 13.032 145.679 13.3307 146.81 13.928C147.951 14.5253 148.858 15.432 149.53 16.648C150.202 17.864 150.538 19.4 150.538 21.256C150.538 23.08 150.202 24.6 149.53 25.816C148.858 27.0213 147.951 27.928 146.81 28.536C145.679 29.144 144.415 29.448 143.018 29.448ZM142.89 26.152C143.636 26.152 144.298 25.9707 144.874 25.608C145.46 25.2347 145.919 24.6853 146.25 23.96C146.591 23.2347 146.762 22.3333 146.762 21.256C146.762 19.6133 146.436 18.376 145.786 17.544C145.146 16.712 144.266 16.296 143.146 16.296C142.388 16.296 141.716 16.4827 141.13 16.856C140.543 17.2187 140.079 17.768 139.738 18.504C139.407 19.24 139.242 20.1573 139.242 21.256C139.242 22.8773 139.567 24.0987 140.218 24.92C140.879 25.7413 141.77 26.152 142.89 26.152ZM155.031 29V7.048H158.807V29H155.031ZM166.989 10.632C166.253 10.632 165.677 10.44 165.261 10.056C164.855 9.66133 164.653 9.11733 164.653 8.424C164.653 7.752 164.855 7.21867 165.261 6.824C165.677 6.41867 166.253 6.216 166.989 6.216C167.714 6.216 168.285 6.41867 168.701 6.824C169.117 7.21867 169.325 7.752 169.325 8.424C169.325 9.11733 169.117 9.66133 168.701 10.056C168.285 10.44 167.714 10.632 166.989 10.632ZM165.101 29V13.416H168.877V29H165.101ZM181.393 29.448C179.974 29.448 178.689 29.144 177.537 28.536C176.395 27.928 175.489 27.0213 174.817 25.816C174.145 24.6 173.809 23.08 173.809 21.256C173.809 19.4 174.145 17.864 174.817 16.648C175.489 15.432 176.395 14.5253 177.537 13.928C178.689 13.3307 179.974 13.032 181.393 13.032C182.79 13.032 184.054 13.3307 185.185 13.928C186.326 14.5253 187.233 15.432 187.905 16.648C188.577 17.864 188.913 19.4 188.913 21.256C188.913 23.08 188.577 24.6 187.905 25.816C187.233 27.0213 186.326 27.928 185.185 28.536C184.054 29.144 182.79 29.448 181.393 29.448ZM181.265 26.152C182.011 26.152 182.673 25.9707 183.249 25.608C183.835 25.2347 184.294 24.6853 184.625 23.96C184.966 23.2347 185.137 22.3333 185.137 21.256C185.137 19.6133 184.811 18.376 184.161 17.544C183.521 16.712 182.641 16.296 181.521 16.296C180.763 16.296 180.091 16.4827 179.505 16.856C178.918 17.2187 178.454 17.768 178.113 18.504C177.782 19.24 177.617 20.1573 177.617 21.256C177.617 22.8773 177.942 24.0987 178.593 24.92C179.254 25.7413 180.145 26.152 181.265 26.152Z" fill="#8C52FF"/>
</svg>
