<svg width="28" height="31" viewBox="0 0 28 31" fill="none" xmlns="http://www.w3.org/2000/svg">
<path d="M9.9375 30H4.25C3.38805 30 2.5614 29.6605 1.9519 29.0562C1.34241 28.4519 1 27.6324 1 26.7778V4.22222C1 3.36764 1.34241 2.54805 1.9519 1.94377C2.5614 1.33948 3.38805 1 4.25 1H17.25C18.112 1 18.9386 1.33948 19.5481 1.94377C20.1576 2.54805 20.5 3.36764 20.5 4.22222V17.1111M23.75 30L27 26.7778L23.75 23.5556M18.875 23.5556L15.625 26.7778L18.875 30M9.125 2.61111H12.375M10.75 23.5556V23.5717" stroke="#8C52FF" stroke-width="2" stroke-linecap="round" stroke-linejoin="round"/>
</svg>
