<svg width="37" height="37" viewBox="0 0 37 37" fill="none" xmlns="http://www.w3.org/2000/svg">
<g clip-path="url(#clip0_204_415)">
<path d="M9 18.4099V27.9999H18.59L16.59 25.9999H11V20.4099L9 18.4099Z" fill="#8C52FF"/>
<path d="M34.87 33.29L32 30.38V33H4.00002V28.85H6.00002V27.25H4.00002V20.6H6.00002V19H4.00002V12.6H6.00002V11H4.00002V5.40996L19.94 21.26V18.44L3.71002 2.28996C3.57015 2.14893 3.39145 2.05275 3.1967 2.01368C3.00195 1.97461 2.79998 1.99442 2.61654 2.07059C2.43309 2.14675 2.27649 2.27582 2.16668 2.44134C2.05688 2.60686 1.99886 2.80133 2.00002 2.99996V34C2.00002 34.2652 2.10537 34.5195 2.29291 34.7071C2.48045 34.8946 2.7348 35 3.00002 35H34.16C34.3586 35.0011 34.5531 34.9431 34.7186 34.8333C34.8841 34.7235 35.0132 34.5669 35.0894 34.3834C35.1656 34.2 35.1854 33.998 35.1463 33.8033C35.1072 33.6085 35.011 33.4298 34.87 33.29Z" fill="#8C52FF"/>
<path d="M24 30.9999H28C28.5304 30.9999 29.0391 30.7892 29.4142 30.4141C29.7893 30.0391 30 29.5304 30 28.9999V9.69992L27.7 5.46992C27.5221 5.16174 27.2652 4.9066 26.9559 4.73081C26.6465 4.55503 26.2958 4.46497 25.94 4.46992C25.5761 4.47281 25.22 4.5749 24.9098 4.76521C24.5997 4.95552 24.3474 5.22683 24.18 5.54992L22 9.71992V28.9999C22 29.5304 22.2107 30.0391 22.5858 30.4141C22.9609 30.7892 23.4696 30.9999 24 30.9999ZM24 10.1999L25.94 6.42992L28 10.2099V24.9999H24V10.1999ZM24 26.6299H28V29.0699H24V26.6299Z" fill="#8C52FF"/>
</g>
<defs>
<clipPath id="clip0_204_415">
<rect width="36" height="36" fill="white" transform="translate(0 1)"/>
</clipPath>
</defs>
</svg>
