<svg width="37" height="37" viewBox="0 0 37 37" fill="none" xmlns="http://www.w3.org/2000/svg">
<path d="M18.4997 30.8334H5.39551C4.78219 30.8334 4.194 30.5898 3.76032 30.1561C3.32665 29.7224 3.08301 29.1342 3.08301 28.5209V8.47925C3.08301 7.86593 3.32665 7.27774 3.76032 6.84406C4.194 6.41039 4.78219 6.16675 5.39551 6.16675H31.6038C32.2172 6.16675 32.8053 6.41039 33.239 6.84406C33.6727 7.27774 33.9163 7.86593 33.9163 8.47925V17.7747" stroke="#8C52FF" stroke-width="2" stroke-linecap="round" stroke-linejoin="round"/>
<path d="M3.08301 8.47925C3.08301 7.86593 3.32665 7.27774 3.76032 6.84406C4.194 6.41039 4.78219 6.16675 5.39551 6.16675H31.6038C32.2172 6.16675 32.8053 6.41039 33.239 6.84406C33.6727 7.27774 33.9163 7.86593 33.9163 8.47925V15.4167H3.08301V8.47925Z" stroke="#8C52FF" stroke-width="2"/>
<path d="M6.16667 10.7918C6.16667 9.94039 6.85689 9.25016 7.70833 9.25016C8.55977 9.25016 9.25 9.94039 9.25 10.7918C9.25 11.6433 8.55977 12.3335 7.70833 12.3335C6.85689 12.3335 6.16667 11.6433 6.16667 10.7918Z" fill="#8C52FF"/>
<path d="M10.7917 10.7918C10.7917 9.94039 11.4819 9.25016 12.3333 9.25016C13.1848 9.25016 13.875 9.94039 13.875 10.7918C13.875 11.6433 13.1848 12.3335 12.3333 12.3335C11.4819 12.3335 10.7917 11.6433 10.7917 10.7918Z" fill="#8C52FF"/>
<path d="M28.5205 28.521C29.7977 28.521 30.833 27.4857 30.833 26.2085C30.833 24.9313 29.7977 23.896 28.5205 23.896C27.2433 23.896 26.208 24.9313 26.208 26.2085C26.208 27.4857 27.2433 28.521 28.5205 28.521Z" stroke="#8C52FF" stroke-width="2"/>
<path d="M28.5204 31.6042V28.5208M28.5204 23.8958V20.8125M23.8477 28.9063L26.5178 27.3646M30.5231 25.0521L33.1932 23.5104M23.8477 23.5104L26.5178 25.0521M30.5231 27.3646L33.1932 28.9063" stroke="#8C52FF" stroke-width="2" stroke-linecap="round" stroke-linejoin="round"/>
</svg>
